<!-- svg-sprite -->
<svg id="mysprite" xmlns="http://www.w3.org/2000/svg" fill="none" aria-hidden="true"
    focusable="false">
    <symbol id="state" viewBox="0 0 24 24" fill="none" xmlns="http://www.w3.org/2000/svg">
        <g clip-path="url(#clip0_20_1661)">
            <path
                d="M23 8C23 9.1 22.1 10 21 10C20.82 10 20.65 9.98 20.49 9.93L16.93 13.48C16.98 13.64 17 13.82 17 14C17 15.1 16.1 16 15 16C13.9 16 13 15.1 13 14C13 13.82 13.02 13.64 13.07 13.48L10.52 10.93C10.36 10.98 10.18 11 10 11C9.82 11 9.64 10.98 9.48 10.93L4.93 15.49C4.98 15.65 5 15.82 5 16C5 17.1 4.1 18 3 18C1.9 18 1 17.1 1 16C1 14.9 1.9 14 3 14C3.18 14 3.35 14.02 3.51 14.07L8.07 9.52C8.02 9.36 8 9.18 8 9C8 7.9 8.9 7 10 7C11.1 7 12 7.9 12 9C12 9.18 11.98 9.36 11.93 9.52L14.48 12.07C14.64 12.02 14.82 12 15 12C15.18 12 15.36 12.02 15.52 12.07L19.07 8.51C19.02 8.35 19 8.18 19 8C19 6.9 19.9 6 21 6C22.1 6 23 6.9 23 8Z"
                fill="currentColor" />
        </g>
        <defs>
            <clipPath id="clip0_20_1661">
                <rect width="24" height="24" fill="currentColor" />
            </clipPath>
        </defs>
    </symbol>
    <symbol id="document" viewBox="0 0 24 24" fill="none" xmlns="http://www.w3.org/2000/svg">
        <path
            d="M14 2H6C4.9 2 4 2.9 4 4V20C4 21.1 4.9 22 6 22H18C19.1 22 20 21.1 20 20V8L14 2ZM16 18H8V16H16V18ZM16 14H8V12H16V14ZM13 9V3.5L18.5 9H13Z"
            fill="currentColor" />
    </symbol>
    <symbol id="tools" viewBox="0 0 24 24" fill="none" xmlns="http://www.w3.org/2000/svg">
        <g clip-path="url(#clip0_20_1674)">
            <path d="M18 16H16V15H8V16H6V15H2V20H22V15H18V16Z" fill="currentColor" />
            <path
                d="M20 8H17V6C17 4.9 16.1 4 15 4H9C7.9 4 7 4.9 7 6V8H4C2.9 8 2 8.9 2 10V14H6V12H8V14H16V12H18V14H22V10C22 8.9 21.1 8 20 8ZM15 8H9V6H15V8Z"
                fill="currentColor" />
        </g>
        <defs>
            <clipPath id="clip0_20_1674">
                <rect width="24" height="24" fill="currentColor" />
            </clipPath>
        </defs>
    </symbol>
    <symbol id="grid-view" viewBox="0 0 14 20" fill="none" xmlns="http://www.w3.org/2000/svg">
        <path d="M14 20V13.6842H7V20H14ZM14 12.6316L14 0H7V12.6316H14ZM0 20H6L6 0H0L0 20Z"
            fill="currentColor" />
    </symbol>

    <symbol id="view-week" viewBox="0 0 19 14" fill="none" xmlns="http://www.w3.org/2000/svg">
        <path
            d="M4 0H1C0.45 0 0 0.45 0 1V13C0 13.55 0.45 14 1 14H4C4.55 14 5 13.55 5 13V1C5 0.45 4.55 0 4 0ZM18 0H15C14.45 0 14 0.45 14 1V13C14 13.55 14.45 14 15 14H18C18.55 14 19 13.55 19 13V1C19 0.45 18.55 0 18 0ZM11 0H8C7.45 0 7 0.45 7 1V13C7 13.55 7.45 14 8 14H11C11.55 14 12 13.55 12 13V1C12 0.45 11.55 0 11 0Z"
            fill="currentColor" />
    </symbol>

    <symbol id="dragToMove" viewBox="0 0 7 12" fill="none" xmlns="http://www.w3.org/2000/svg">
        <path
            d="M2.8 10C2.8 10.77 2.17 11.4 1.4 11.4C0.63 11.4 0 10.77 0 10C0 9.23001 0.63 8.60001 1.4 8.60001C2.17 8.60001 2.8 9.23001 2.8 10ZM1.4 4.40001C0.63 4.40001 0 5.03001 0 5.80001C0 6.57001 0.63 7.20001 1.4 7.20001C2.17 7.20001 2.8 6.57001 2.8 5.80001C2.8 5.03001 2.17 4.40001 1.4 4.40001ZM1.4 0.200012C0.63 0.200012 0 0.830012 0 1.60001C0 2.37001 0.63 3.00001 1.4 3.00001C2.17 3.00001 2.8 2.37001 2.8 1.60001C2.8 0.830012 2.17 0.200012 1.4 0.200012ZM5.6 3.00001C6.37 3.00001 7 2.37001 7 1.60001C7 0.830012 6.37 0.200012 5.6 0.200012C4.83 0.200012 4.2 0.830012 4.2 1.60001C4.2 2.37001 4.83 3.00001 5.6 3.00001ZM5.6 4.40001C4.83 4.40001 4.2 5.03001 4.2 5.80001C4.2 6.57001 4.83 7.20001 5.6 7.20001C6.37 7.20001 7 6.57001 7 5.80001C7 5.03001 6.37 4.40001 5.6 4.40001ZM5.6 8.60001C4.83 8.60001 4.2 9.23001 4.2 10C4.2 10.77 4.83 11.4 5.6 11.4C6.37 11.4 7 10.77 7 10C7 9.23001 6.37 8.60001 5.6 8.60001Z"
            fill="currentColor" />
    </symbol>
    <symbol id="certificate" viewBox="0 0 14 14" fill="none" xmlns="http://www.w3.org/2000/svg">
        <g clip-path="url(#clip0_20_1715)">
            <path
                d="M12.5404 6.99779L13.7978 5.76719C14.1727 5.41235 13.9979 4.78175 13.5063 4.66417L11.7932 4.22694L12.2761 2.53122C12.4126 2.04346 11.9526 1.5834 11.465 1.7199L9.76989 2.20299L9.33283 0.489325C9.21717 0.00536835 8.57951 -0.171628 8.23019 0.197622L7 1.46479L5.76983 0.19765C5.42448 -0.167417 4.78417 -0.000155121 4.66719 0.489353L4.23013 2.20301L2.53496 1.71993C2.04723 1.58338 1.58747 2.0436 1.72391 2.53125L2.20683 4.22697L0.493745 4.6642C0.00188577 4.7818 -0.17254 5.41251 0.202124 5.76719L1.45953 6.99779L0.202124 8.22837C-0.172704 8.58321 0.00207725 9.21381 0.493718 9.33139L2.2068 9.76862L1.72389 11.4643C1.58741 11.9521 2.04734 12.4122 2.53493 12.2757L4.23008 11.7926L4.66714 13.5062C4.78852 14.0141 5.42445 14.163 5.76978 13.7979L7 12.5401L8.23017 13.7979C8.57196 14.1667 9.21419 14.0026 9.3328 13.5062L9.76987 11.7926L11.465 12.2757C11.9527 12.4122 12.4125 11.952 12.2761 11.4643L11.7931 9.76862L13.5062 9.33139C13.9981 9.21376 14.1725 8.58307 13.7978 8.22837L12.5404 6.99779Z"
                fill="currentColor" />
        </g>
        <defs>
            <clipPath id="clip0_20_1715">
                <rect width="14" height="14" fill="currentColor" />
            </clipPath>
        </defs>
    </symbol>
    <symbol id="cancel" viewBox="0 0 18 18" fill="none" xmlns="http://www.w3.org/2000/svg">
        <mask id="mask0_20_1719" style="mask-type:alpha" maskUnits="userSpaceOnUse" x="0" y="0"
            width="18" height="18">
            <rect width="18" height="18" fill="currentColor" />
        </mask>
        <g mask="url(#mask0_20_1719)">
            <path
                d="M9.00345 16.5034C7.96595 16.5034 6.99095 16.3064 6.07845 15.9124C5.16595 15.5189 4.3722 14.9847 3.6972 14.3097C3.0222 13.6347 2.48795 12.8409 2.09445 11.9284C1.70045 11.0159 1.50345 10.0409 1.50345 9.00345C1.50345 7.96595 1.70045 6.99095 2.09445 6.07845C2.48795 5.16595 3.0222 4.3722 3.6972 3.6972C4.3722 3.0222 5.16595 2.4877 6.07845 2.0937C6.99095 1.7002 7.96595 1.50345 9.00345 1.50345C10.0409 1.50345 11.0159 1.7002 11.9284 2.0937C12.8409 2.4877 13.6347 3.0222 14.3097 3.6972C14.9847 4.3722 15.5189 5.16595 15.9124 6.07845C16.3064 6.99095 16.5034 7.96595 16.5034 9.00345C16.5034 10.0409 16.3064 11.0159 15.9124 11.9284C15.5189 12.8409 14.9847 13.6347 14.3097 14.3097C13.6347 14.9847 12.8409 15.5189 11.9284 15.9124C11.0159 16.3064 10.0409 16.5034 9.00345 16.5034ZM9.00345 15.0034C10.6784 15.0034 12.0972 14.4222 13.2597 13.2597C14.4222 12.0972 15.0034 10.6784 15.0034 9.00345C15.0034 8.32845 14.8939 7.67845 14.6749 7.05345C14.4564 6.42845 14.1409 5.85345 13.7284 5.32845L5.32845 13.7284C5.85345 14.1409 6.42845 14.4564 7.05345 14.6749C7.67845 14.8939 8.32845 15.0034 9.00345 15.0034ZM4.27845 12.6784L12.6784 4.27845C12.1534 3.86595 11.5784 3.55045 10.9534 3.33195C10.3284 3.11295 9.67845 3.00345 9.00345 3.00345C7.32845 3.00345 5.9097 3.5847 4.7472 4.7472C3.5847 5.9097 3.00345 7.32845 3.00345 9.00345C3.00345 9.67845 3.11295 10.3284 3.33195 10.9534C3.55045 11.5784 3.86595 12.1534 4.27845 12.6784Z"
                fill="currentColor" />
        </g>
    </symbol>
    <symbol id="edit" viewBox="0 0 20 20" fill="none" xmlns="http://www.w3.org/2000/svg">
        <mask id="mask0_20_1724" style="mask-type:alpha" maskUnits="userSpaceOnUse" x="0" y="0"
            width="20" height="20">
            <rect width="20" height="20" fill="currentColor" />
        </mask>
        <g mask="url(#mask0_20_1724)">
            <path
                d="M4.16667 15.8336H5.33333L12.5208 8.64607L11.3542 7.4794L4.16667 14.6669V15.8336ZM16.0833 7.43773L12.5417 3.93773L13.7083 2.77107C14.0278 2.45162 14.4203 2.2919 14.8858 2.2919C15.3508 2.2919 15.7431 2.45162 16.0625 2.77107L17.2292 3.93773C17.5486 4.25718 17.7153 4.64273 17.7292 5.0944C17.7431 5.54551 17.5903 5.93079 17.2708 6.25023L16.0833 7.43773ZM14.875 8.6669L6.04167 17.5002H2.5V13.9586L11.3333 5.12523L14.875 8.6669Z"
                fill="currentColor" />
        </g>
    </symbol>
    <symbol id="delete" viewBox="0 0 20 20" fill="none" xmlns="http://www.w3.org/2000/svg">
        <mask id="mask0_20_1729" style="mask-type:alpha" maskUnits="userSpaceOnUse" x="0" y="0"
            width="20" height="20">
            <rect width="20" height="20" fill="currentColor" />
        </mask>
        <g mask="url(#mask0_20_1729)">
            <path
                d="M5.83343 17.5C5.3751 17.5 4.98288 17.3369 4.65677 17.0108C4.3301 16.6842 4.16677 16.2917 4.16677 15.8333V5H3.33344V3.33333H7.5001V2.5H12.5001V3.33333H16.6668V5H15.8334V15.8333C15.8334 16.2917 15.6704 16.6842 15.3443 17.0108C15.0176 17.3369 14.6251 17.5 14.1668 17.5H5.83343ZM14.1668 5H5.83343V15.8333H14.1668V5ZM7.5001 14.1667H9.16677V6.66667H7.5001V14.1667ZM10.8334 14.1667H12.5001V6.66667H10.8334V14.1667Z"
                fill="currentColor" />
        </g>
    </symbol>
    <symbol id="vertical" viewBox="0 0 14 18" fill="none"
        xmlns="http://www.w3.org/2000/svg">
        <path
            d="M13 16.375V12.325H1L1 16.375C1 16.5583 1.05833 16.7083 1.175 16.825C1.29167 16.9417 1.44167 17 1.625 17H12.375C12.5583 17 12.7083 16.9417 12.825 16.825C12.9417 16.7083 13 16.5583 13 16.375ZM13 11.325V6.675H1L1 11.325H13ZM13 5.675L13 1.625C13 1.44167 12.9417 1.29167 12.825 1.175C12.7083 1.05833 12.5583 1 12.375 1H1.625C1.44167 1 1.29167 1.05833 1.175 1.175C1.05833 1.29167 1 1.44167 1 1.625L1 5.675H13ZM14 16.375C14 16.8417 13.846 17.229 13.538 17.537C13.2293 17.8457 12.8417 18 12.375 18H1.625C1.15833 18 0.771 17.8457 0.463 17.537C0.154333 17.229 0 16.8417 0 16.375L0 1.625C0 1.15833 0.154333 0.770666 0.463 0.462C0.771 0.153999 1.15833 0 1.625 0H12.375C12.8417 0 13.2293 0.153999 13.538 0.462C13.846 0.770666 14 1.15833 14 1.625L14 16.375Z"
            fill="currentColor" />
    </symbol>
    <symbol id="horizontal" viewBox="0 0 18 14" fill="none"
        xmlns="http://www.w3.org/2000/svg">
        <path
            d="M1.625 13H5.675V1H1.625C1.44167 1 1.29167 1.05833 1.175 1.175C1.05833 1.29167 1 1.44167 1 1.625V12.375C1 12.5583 1.05833 12.7083 1.175 12.825C1.29167 12.9417 1.44167 13 1.625 13ZM6.675 13H11.325V1H6.675V13ZM12.325 13H16.375C16.5583 13 16.7083 12.9417 16.825 12.825C16.9417 12.7083 17 12.5583 17 12.375V1.625C17 1.44167 16.9417 1.29167 16.825 1.175C16.7083 1.05833 16.5583 1 16.375 1H12.325V13ZM1.625 14C1.15833 14 0.771 13.846 0.463 13.538C0.154333 13.2293 0 12.8417 0 12.375V1.625C0 1.15833 0.154333 0.771 0.463 0.463C0.771 0.154333 1.15833 0 1.625 0H16.375C16.8417 0 17.2293 0.154333 17.538 0.463C17.846 0.771 18 1.15833 18 1.625V12.375C18 12.8417 17.846 13.2293 17.538 13.538C17.2293 13.846 16.8417 14 16.375 14H1.625Z"
            fill="currentColor" />
    </symbol>
    <symbol id="expand" viewBox="0 0 14 14" fill="none"
        xmlns="http://www.w3.org/2000/svg">
        <path
            d="M0 4.625V0.75C0 0.334375 0.334375 0 0.75 0H4.625C4.83125 0 5 0.16875 5 0.375V1.625C5 1.83125 4.83125 2 4.625 2H2V4.625C2 4.83125 1.83125 5 1.625 5H0.375C0.16875 5 0 4.83125 0 4.625ZM9 0.375V1.625C9 1.83125 9.16875 2 9.375 2H12V4.625C12 4.83125 12.1687 5 12.375 5H13.625C13.8313 5 14 4.83125 14 4.625V0.75C14 0.334375 13.6656 0 13.25 0H9.375C9.16875 0 9 0.16875 9 0.375ZM13.625 9H12.375C12.1687 9 12 9.16875 12 9.375V12H9.375C9.16875 12 9 12.1687 9 12.375V13.625C9 13.8313 9.16875 14 9.375 14H13.25C13.6656 14 14 13.6656 14 13.25V9.375C14 9.16875 13.8313 9 13.625 9ZM5 13.625V12.375C5 12.1687 4.83125 12 4.625 12H2V9.375C2 9.16875 1.83125 9 1.625 9H0.375C0.16875 9 0 9.16875 0 9.375V13.25C0 13.6656 0.334375 14 0.75 14H4.625C4.83125 14 5 13.8313 5 13.625Z"
            fill="currentColor" />
    </symbol>
    <symbol id="hamburger" viewBox="0 0 24 24" fill="none" xmlns="http://www.w3.org/2000/svg">
        <mask id="mask0_20_1908" style="mask-type:alpha" maskUnits="userSpaceOnUse" x="0" y="0"
            width="24" height="24">
            <rect width="24" height="24" fill="currentColor" />
        </mask>
        <g mask="url(#mask0_20_1908)">
            <path d="M3 18V16H21V18H3ZM3 13V11H21V13H3ZM3 8V6H21V8H3Z" fill="currentColor" />
        </g>
    </symbol>
    <symbol id="save" viewBox="0 0 16 16" fill="none" xmlns="http://www.w3.org/2000/svg">
        <path
            d="M16 3.425V14.375C16 14.8417 15.846 15.2293 15.538 15.538C15.2293 15.846 14.8417 16 14.375 16H1.625C1.15833 16 0.771 15.846 0.463 15.538C0.154333 15.2293 0 14.8417 0 14.375V1.625C0 1.15833 0.154333 0.771 0.463 0.463C0.771 0.154333 1.15833 0 1.625 0H12.575L16 3.425ZM15 3.85L12.15 1H1.625C1.44167 1 1.29167 1.05833 1.175 1.175C1.05833 1.29167 1 1.44167 1 1.625V14.375C1 14.5583 1.05833 14.7083 1.175 14.825C1.29167 14.9417 1.44167 15 1.625 15H14.375C14.5583 15 14.7083 14.9417 14.825 14.825C14.9417 14.7083 15 14.5583 15 14.375V3.85ZM8 12.55C8.55 12.55 9.021 12.3543 9.413 11.963C9.80433 11.571 10 11.1 10 10.55C10 9.98333 9.80433 9.50833 9.413 9.125C9.021 8.74167 8.55 8.55 8 8.55C7.45 8.55 6.97933 8.74167 6.588 9.125C6.196 9.50833 6 9.98333 6 10.55C6 11.1 6.196 11.571 6.588 11.963C6.97933 12.3543 7.45 12.55 8 12.55ZM2.775 5.775H10.2V2.775H2.775V5.775Z"
            fill="currentColor" />
    </symbol>


</svg>